<?xml version="1.0" encoding="iso-8859-1"?>
<!-- Generator: Adobe Illustrator 17.1.0, SVG Export Plug-In . SVG Version: 6.00 Build 0)  -->
<!DOCTYPE svg PUBLIC "-//W3C//DTD SVG 1.1//EN" "http://www.w3.org/Graphics/SVG/1.1/DTD/svg11.dtd">
<svg version="1.1" id="Capa_1" xmlns="http://www.w3.org/2000/svg" xmlns:xlink="http://www.w3.org/1999/xlink" x="0px" y="0px"
	 viewBox="0 0 236.064 236.064" style="enable-background:new 0 0 236.064 236.064;" xml:space="preserve">
<g>
	<path d="M94.304,180.313c4.143,0,7.5-3.358,7.5-7.5v-9.583h4.144c14.599,0,26.475-11.876,26.475-26.475v-0.383
		c0-10.025-5.601-18.766-13.838-23.259c2.817-4.206,4.463-9.259,4.463-14.691v-0.384c0-12.807-9.143-23.518-21.243-25.953V61.979
		c0-4.142-3.357-7.5-7.5-7.5s-7.5,3.358-7.5,7.5v9.583H73.06c-4.143,0-7.5,3.358-7.5,7.5v38.333v38.333c0,4.142,3.357,7.5,7.5,7.5
		h13.744v9.583C86.804,176.955,90.161,180.313,94.304,180.313z M80.56,86.563h16.013c6.327,0,11.475,5.147,11.475,11.475v0.384
		c0,6.327-5.147,11.475-11.475,11.475H80.56V86.563z M80.56,124.896h16.013h9.375c6.327,0,11.475,5.147,11.475,11.475v0.383
		c0,6.328-5.147,11.475-11.475,11.475H80.56V124.896z"/>
	<path d="M142.371,23.449H95.26c-0.046,0-0.09,0.006-0.136,0.007c-0.18-0.001-0.36-0.007-0.541-0.007
		C42.43,23.449,0,65.879,0,118.032c0,30.394,14.758,59.134,39.478,76.881c3.362,2.415,8.05,1.648,10.467-1.718
		c2.415-3.365,1.646-8.051-1.719-10.466C27.421,167.792,15,143.606,15,118.032c0-43.882,35.701-79.583,79.583-79.583
		s79.583,35.701,79.583,79.583c0,43.385-34.903,78.75-78.102,79.546H95.26c-0.271,0-0.538,0.016-0.801,0.044
		c-4.084,0.067-7.376,3.393-7.376,7.494c0,4.142,3.357,7.5,7.5,7.5c0.874,0,1.744-0.014,2.612-0.038h45.176
		c51.663,0,93.693-42.031,93.693-93.694v-1.742C236.064,65.479,194.034,23.449,142.371,23.449z M145.835,197.49
		c11.071-7.166,20.554-16.582,27.803-27.595h28.582C188.476,185.997,168.376,196.508,145.835,197.49z M221.064,118.884
		c0,12.973-3.175,25.212-8.759,36.011h-30.62c3.887-9.151,6.372-19.035,7.185-29.382h16.215c4.143,0,7.5-3.358,7.5-7.5
		s-3.357-7.5-7.5-7.5h-16.219c-0.911-11.532-3.903-22.487-8.595-32.493h6.76c4.143,0,7.5-3.358,7.5-7.5s-3.357-7.5-7.5-7.5H171.66
		c-0.06,0-0.117,0.008-0.176,0.009c-6.948-9.687-15.679-18.013-25.708-24.494c41.817,1.79,75.289,36.357,75.289,78.607V118.884z"/>
</g>
<g>
</g>
<g>
</g>
<g>
</g>
<g>
</g>
<g>
</g>
<g>
</g>
<g>
</g>
<g>
</g>
<g>
</g>
<g>
</g>
<g>
</g>
<g>
</g>
<g>
</g>
<g>
</g>
<g>
</g>
</svg>
