<?xml version="1.0" encoding="iso-8859-1"?>
<!-- Generator: Adobe Illustrator 19.0.0, SVG Export Plug-In . SVG Version: 6.00 Build 0)  -->
<svg version="1.1" id="Layer_1" xmlns="http://www.w3.org/2000/svg" xmlns:xlink="http://www.w3.org/1999/xlink" x="0px" y="0px"
	 viewBox="0 0 512 512" style="enable-background:new 0 0 512 512;" xml:space="preserve">
<g>
	<g>
		<path d="M256.001,50.939c-44.962,0-87.645,14.28-123.437,41.298c-3.776,2.85-4.526,8.221-1.677,11.996
			c2.851,3.776,8.221,4.527,11.997,1.675c32.795-24.755,71.909-37.84,113.116-37.84c103.625,0,187.931,84.305,187.931,187.931
			S359.626,443.93,256.001,443.93S68.069,359.625,68.069,255.999c0-45.331,16.361-89.107,46.071-123.268
			c3.104-3.568,2.727-8.978-0.842-12.082c-3.57-3.103-8.977-2.726-12.084,0.842C68.793,158.768,50.939,206.539,50.939,256
			c0,113.072,91.991,205.061,205.062,205.061s205.06-91.99,205.06-205.061S369.072,50.939,256.001,50.939z"/>
	</g>
</g>
<g>
	<g>
		<path d="M509.12,217.472c-0.706-4.678-5.084-7.891-9.747-7.191c-4.678,0.706-7.897,5.07-7.191,9.747
			c1.785,11.823,2.688,23.926,2.688,35.972c0,131.713-107.156,238.87-238.869,238.87S17.13,387.713,17.13,256
			S124.288,17.131,256.001,17.131c52.132,0,101.664,16.492,143.237,47.693c40.218,30.183,70.453,73.13,85.139,120.931
			c1.389,4.521,6.183,7.058,10.702,5.672c4.522-1.389,7.062-6.182,5.672-10.703c-15.74-51.235-48.139-97.262-91.23-129.6
			c-44.565-33.446-97.65-51.123-153.52-51.123c-68.38,0-132.668,26.629-181.02,74.981C26.629,123.333,0,187.621,0,256
			s26.629,132.667,74.98,181.019c48.353,48.352,112.64,74.98,181.02,74.98c68.379,0,132.667-26.629,181.019-74.98
			C485.371,388.667,512,324.379,512,256C512,243.102,511.032,230.139,509.12,217.472z"/>
	</g>
</g>
<g>
	<g>
		<path d="M319.648,239.781c1.722-3.704,2.69-7.825,2.69-12.169v-48.498c0-15.972-12.994-28.968-28.967-28.968h-9.107v-22.04
			c0-4.73-3.834-8.565-8.565-8.565s-8.565,3.835-8.565,8.565v22.04h-18.841v-22.04c0-4.73-3.834-8.565-8.565-8.565
			c-4.732,0-8.565,3.835-8.565,8.565v22.04h-51.389c-4.731,0-8.565,3.835-8.565,8.565c0,4.73,3.834,8.565,8.565,8.565h11.99v80.736
			v42.672c0,4.73,3.834,8.565,8.565,8.565s8.565-3.835,8.565-8.565v-34.107h84.477h21.88c6.527,0,11.836,5.309,11.836,11.837v61.975
			c0,6.527-5.309,11.836-11.836,11.836H208.894v-18.993c0-4.73-3.834-8.565-8.565-8.565s-8.565,3.835-8.565,8.565v18.993h-11.99
			c-4.731,0-8.565,3.835-8.565,8.565c0,4.73,3.834,8.565,8.565,8.565h51.389v24.539c0,4.73,3.834,8.565,8.565,8.565
			c4.731,0,8.565-3.835,8.565-8.565v-24.539h18.841v24.539c0,4.73,3.834,8.565,8.565,8.565s8.565-3.835,8.565-8.565v-24.539h30.987
			c15.972,0,28.967-12.994,28.967-28.967v-61.975C344.218,253.936,333.541,241.905,319.648,239.781z M305.207,227.611
			c0,6.527-5.309,11.836-11.836,11.836h-84.477v-72.171h84.477c6.527,0,11.836,5.309,11.836,11.837V227.611z"/>
	</g>
</g>
<g>
</g>
<g>
</g>
<g>
</g>
<g>
</g>
<g>
</g>
<g>
</g>
<g>
</g>
<g>
</g>
<g>
</g>
<g>
</g>
<g>
</g>
<g>
</g>
<g>
</g>
<g>
</g>
<g>
</g>
</svg>
